HIERARCHY
ROOT mixamorig:Hips
{
	OFFSET -0.000008 104.274872 1.554316
	CHANNELS 6 Xposition Yposition Zposition Xrotation Yrotation Zrotation
	JOINT mixamorig:Spine
	{
		OFFSET -0.000005 10.181595 0.131519
		CHANNELS 6 Xposition Yposition Zposition Xrotation Yrotation Zrotation
		JOINT mixamorig:Spine1
		{
			OFFSET -0.000000 9.893959 -1.470707
			CHANNELS 6 Xposition Yposition Zposition Xrotation Yrotation Zrotation
			JOINT mixamorig:Spine2
			{
				OFFSET -0.000000 9.220757 -1.370641
				CHANNELS 6 Xposition Yposition Zposition Xrotation Yrotation Zrotation
				JOINT mixamorig:Neck
				{
					OFFSET 0.000001 16.740417 -2.049036
					CHANNELS 6 Xposition Yposition Zposition Xrotation Yrotation Zrotation
					JOINT mixamorig:Head
					{
						OFFSET 0.000000 9.617874 1.685006
						CHANNELS 6 Xposition Yposition Zposition Xrotation Yrotation Zrotation
						JOINT mixamorig:HeadTop_End
						{
							OFFSET 0.000002 22.037354 7.501101
							CHANNELS 6 Xposition Yposition Zposition Xrotation Yrotation Zrotation
							End Site
							{
								OFFSET 0.000168 2310.654297 -282.823242
							}
						}
					}
				}
				JOINT mixamorig:RightShoulder
				{
					OFFSET -4.569970 11.014908 -2.160885
					CHANNELS 6 Xposition Yposition Zposition Xrotation Yrotation Zrotation
					JOINT mixamorig:RightArm
					{
						OFFSET -10.592851 -0.524811 -2.232101
						CHANNELS 6 Xposition Yposition Zposition Xrotation Yrotation Zrotation
						JOINT mixamorig:RightForeArm
						{
							OFFSET -27.841511 0.000031 -0.000004
							CHANNELS 6 Xposition Yposition Zposition Xrotation Yrotation Zrotation
							JOINT mixamorig:RightHand
							{
								OFFSET -28.328831 -0.000015 0.000015
								CHANNELS 6 Xposition Yposition Zposition Xrotation Yrotation Zrotation
								JOINT mixamorig:RightHandThumb1
								{
									OFFSET -2.464806 -1.573990 2.681852
									CHANNELS 6 Xposition Yposition Zposition Xrotation Yrotation Zrotation
									JOINT mixamorig:RightHandThumb2
									{
										OFFSET -3.215179 -1.872803 1.924282
										CHANNELS 6 Xposition Yposition Zposition Xrotation Yrotation Zrotation
										JOINT mixamorig:RightHandThumb3
										{
											OFFSET -2.654831 -1.527969 1.512609
											CHANNELS 6 Xposition Yposition Zposition Xrotation Yrotation Zrotation
											JOINT mixamorig:RightHandThumb4
											{
												OFFSET -2.018814 -1.152008 1.108052
												CHANNELS 6 Xposition Yposition Zposition Xrotation Yrotation Zrotation
												End Site
												{
													OFFSET -188.809540 -114.533607 132.431396
												}
											}
										}
									}
								}
								JOINT mixamorig:RightHandIndex1
								{
									OFFSET -9.108284 -0.517868 2.259835
									CHANNELS 6 Xposition Yposition Zposition Xrotation Yrotation Zrotation
									JOINT mixamorig:RightHandIndex2
									{
										OFFSET -3.699989 0.000000 0.001215
										CHANNELS 6 Xposition Yposition Zposition Xrotation Yrotation Zrotation
										JOINT mixamorig:RightHandIndex3
										{
											OFFSET -2.850006 0.000031 -0.000522
											CHANNELS 6 Xposition Yposition Zposition Xrotation Yrotation Zrotation
											JOINT mixamorig:RightHandIndex4
											{
												OFFSET -2.772186 -0.000015 -0.000020
												CHANNELS 6 Xposition Yposition Zposition Xrotation Yrotation Zrotation
												End Site
												{
													OFFSET -277.218445 0.000000 -0.050231
												}
											}
										}
									}
								}
								JOINT mixamorig:RightHandMiddle1
								{
									OFFSET -9.532516 -0.000031 -0.000023
									CHANNELS 6 Xposition Yposition Zposition Xrotation Yrotation Zrotation
									JOINT mixamorig:RightHandMiddle2
									{
										OFFSET -3.700005 -0.000015 0.003713
										CHANNELS 6 Xposition Yposition Zposition Xrotation Yrotation Zrotation
										JOINT mixamorig:RightHandMiddle3
										{
											OFFSET -2.949974 0.000015 -0.002054
											CHANNELS 6 Xposition Yposition Zposition Xrotation Yrotation Zrotation
											JOINT mixamorig:RightHandMiddle4
											{
												OFFSET -2.946640 0.000000 -0.000156
												CHANNELS 6 Xposition Yposition Zposition Xrotation Yrotation Zrotation
												End Site
												{
													OFFSET -294.664337 0.000000 -0.113670
												}
											}
										}
									}
								}
								JOINT mixamorig:RightHandRing1
								{
									OFFSET -9.103600 -0.043076 -1.865134
									CHANNELS 6 Xposition Yposition Zposition Xrotation Yrotation Zrotation
									JOINT mixamorig:RightHandRing2
									{
										OFFSET -3.379288 0.000000 -0.001055
										CHANNELS 6 Xposition Yposition Zposition Xrotation Yrotation Zrotation
										JOINT mixamorig:RightHandRing3
										{
											OFFSET -2.889687 -0.000015 0.000379
											CHANNELS 6 Xposition Yposition Zposition Xrotation Yrotation Zrotation
											JOINT mixamorig:RightHandRing4
											{
												OFFSET -2.638809 -0.000015 0.000941
												CHANNELS 6 Xposition Yposition Zposition Xrotation Yrotation Zrotation
												End Site
												{
													OFFSET -263.880371 0.000000 0.516020
												}
											}
										}
									}
								}
								JOINT mixamorig:RightHandPinky1
								{
									OFFSET -8.076683 -0.486710 -3.806280
									CHANNELS 6 Xposition Yposition Zposition Xrotation Yrotation Zrotation
									JOINT mixamorig:RightHandPinky2
									{
										OFFSET -3.600014 -0.000015 -0.003747
										CHANNELS 6 Xposition Yposition Zposition Xrotation Yrotation Zrotation
										JOINT mixamorig:RightHandPinky3
										{
											OFFSET -2.099983 0.000000 -0.005739
											CHANNELS 6 Xposition Yposition Zposition Xrotation Yrotation Zrotation
											JOINT mixamorig:RightHandPinky4
											{
												OFFSET -2.115768 -0.000031 -0.003680
												CHANNELS 6 Xposition Yposition Zposition Xrotation Yrotation Zrotation
												End Site
												{
													OFFSET -211.577087 0.000000 -0.350686
												}
											}
										}
									}
								}
							}
						}
					}
				}
				JOINT mixamorig:LeftShoulder
				{
					OFFSET 4.570447 11.014725 -2.160855
					CHANNELS 6 Xposition Yposition Zposition Xrotation Yrotation Zrotation
					JOINT mixamorig:LeftArm
					{
						OFFSET 10.592371 -0.524597 -2.232119
						CHANNELS 6 Xposition Yposition Zposition Xrotation Yrotation Zrotation
						JOINT mixamorig:LeftForeArm
						{
							OFFSET 27.841532 -0.000031 0.000026
							CHANNELS 6 Xposition Yposition Zposition Xrotation Yrotation Zrotation
							JOINT mixamorig:LeftHand
							{
								OFFSET 28.328846 -0.000061 0.000022
								CHANNELS 6 Xposition Yposition Zposition Xrotation Yrotation Zrotation
								JOINT mixamorig:LeftHandThumb1
								{
									OFFSET 2.466141 -1.576172 2.681732
									CHANNELS 6 Xposition Yposition Zposition Xrotation Yrotation Zrotation
									JOINT mixamorig:LeftHandThumb2
									{
										OFFSET 3.217812 -1.872070 1.916482
										CHANNELS 6 Xposition Yposition Zposition Xrotation Yrotation Zrotation
										JOINT mixamorig:LeftHandThumb3
										{
											OFFSET 2.656029 -1.528778 1.514513
											CHANNELS 6 Xposition Yposition Zposition Xrotation Yrotation Zrotation
											JOINT mixamorig:LeftHandThumb4
											{
												OFFSET 2.020889 -1.154053 1.115139
												CHANNELS 6 Xposition Yposition Zposition Xrotation Yrotation Zrotation
												End Site
												{
													OFFSET 190.885437 -115.081749 130.048782
												}
											}
										}
									}
								}
								JOINT mixamorig:LeftHandIndex1
								{
									OFFSET 9.109314 -0.518021 2.259871
									CHANNELS 6 Xposition Yposition Zposition Xrotation Yrotation Zrotation
									JOINT mixamorig:LeftHandIndex2
									{
										OFFSET 3.699989 0.000000 -0.000322
										CHANNELS 6 Xposition Yposition Zposition Xrotation Yrotation Zrotation
										JOINT mixamorig:LeftHandIndex3
										{
											OFFSET 2.850006 0.000000 0.000352
											CHANNELS 6 Xposition Yposition Zposition Xrotation Yrotation Zrotation
											JOINT mixamorig:LeftHandIndex4
											{
												OFFSET 2.774864 -0.000031 -0.000027
												CHANNELS 6 Xposition Yposition Zposition Xrotation Yrotation Zrotation
												End Site
												{
													OFFSET 277.486267 0.000000 -0.009857
												}
											}
										}
									}
								}
								JOINT mixamorig:LeftHandMiddle1
								{
									OFFSET 9.533394 0.000061 0.000044
									CHANNELS 6 Xposition Yposition Zposition Xrotation Yrotation Zrotation
									JOINT mixamorig:LeftHandMiddle2
									{
										OFFSET 3.699989 -0.000015 -0.000231
										CHANNELS 6 Xposition Yposition Zposition Xrotation Yrotation Zrotation
										JOINT mixamorig:LeftHandMiddle3
										{
											OFFSET 2.949997 -0.000015 -0.000059
											CHANNELS 6 Xposition Yposition Zposition Xrotation Yrotation Zrotation
											JOINT mixamorig:LeftHandMiddle4
											{
												OFFSET 2.952896 0.000031 0.000063
												CHANNELS 6 Xposition Yposition Zposition Xrotation Yrotation Zrotation
												End Site
												{
													OFFSET 295.289337 0.000000 0.022810
												}
											}
										}
									}
								}
								JOINT mixamorig:LeftHandRing1
								{
									OFFSET 9.104523 -0.042999 -1.865074
									CHANNELS 6 Xposition Yposition Zposition Xrotation Yrotation Zrotation
									JOINT mixamorig:LeftHandRing2
									{
										OFFSET 3.150009 -0.000031 0.000043
										CHANNELS 6 Xposition Yposition Zposition Xrotation Yrotation Zrotation
										JOINT mixamorig:LeftHandRing3
										{
											OFFSET 2.949982 -0.000015 0.000040
											CHANNELS 6 Xposition Yposition Zposition Xrotation Yrotation Zrotation
											JOINT mixamorig:LeftHandRing4
											{
												OFFSET 2.644348 0.000000 0.000057
												CHANNELS 6 Xposition Yposition Zposition Xrotation Yrotation Zrotation
												End Site
												{
													OFFSET 264.434631 0.000000 0.012105
												}
											}
										}
									}
								}
								JOINT mixamorig:LeftHandPinky1
								{
									OFFSET 8.077789 -0.486847 -3.806259
									CHANNELS 6 Xposition Yposition Zposition Xrotation Yrotation Zrotation
									JOINT mixamorig:LeftHandPinky2
									{
										OFFSET 3.599953 0.000031 0.014727
										CHANNELS 6 Xposition Yposition Zposition Xrotation Yrotation Zrotation
										JOINT mixamorig:LeftHandPinky3
										{
											OFFSET 2.100021 0.000015 0.007705
											CHANNELS 6 Xposition Yposition Zposition Xrotation Yrotation Zrotation
											JOINT mixamorig:LeftHandPinky4
											{
												OFFSET 2.125504 0.000031 0.007517
												CHANNELS 6 Xposition Yposition Zposition Xrotation Yrotation Zrotation
												End Site
												{
													OFFSET 212.550781 0.000000 0.625752
												}
											}
										}
									}
								}
							}
						}
					}
				}
			}
		}
	}
	JOINT mixamorig:RightUpLeg
	{
		OFFSET -8.207787 -6.751648 -1.599560
		CHANNELS 6 Xposition Yposition Zposition Xrotation Yrotation Zrotation
		JOINT mixamorig:RightLeg
		{
			OFFSET -0.000002 -44.370117 0.345942
			CHANNELS 6 Xposition Yposition Zposition Xrotation Yrotation Zrotation
			JOINT mixamorig:RightFoot
			{
				OFFSET 0.000003 -44.423679 -3.043532
				CHANNELS 6 Xposition Yposition Zposition Xrotation Yrotation Zrotation
				JOINT mixamorig:RightToeBase
				{
					OFFSET -0.000002 -8.728671 10.710558
					CHANNELS 6 Xposition Yposition Zposition Xrotation Yrotation Zrotation
					JOINT mixamorig:RightToe_End
					{
						OFFSET -0.000001 -0.000679 9.278119
						CHANNELS 6 Xposition Yposition Zposition Xrotation Yrotation Zrotation
						End Site
						{
							OFFSET 0.000000 -0.067690 927.812134
						}
					}
				}
			}
		}
	}
	JOINT mixamorig:LeftUpLeg
	{
		OFFSET 8.207793 -6.751686 -1.599556
		CHANNELS 6 Xposition Yposition Zposition Xrotation Yrotation Zrotation
		JOINT mixamorig:LeftLeg
		{
			OFFSET -0.000004 -44.370014 0.346954
			CHANNELS 6 Xposition Yposition Zposition Xrotation Yrotation Zrotation
			JOINT mixamorig:LeftFoot
			{
				OFFSET -0.000001 -44.423672 -3.044401
				CHANNELS 6 Xposition Yposition Zposition Xrotation Yrotation Zrotation
				JOINT mixamorig:LeftToeBase
				{
					OFFSET -0.000002 -8.728669 10.710558
					CHANNELS 6 Xposition Yposition Zposition Xrotation Yrotation Zrotation
					JOINT mixamorig:LeftToe_End
					{
						OFFSET -0.000003 -0.000679 9.278133
						CHANNELS 6 Xposition Yposition Zposition Xrotation Yrotation Zrotation
						End Site
						{
							OFFSET 0.000000 -0.068021 927.813477
						}
					}
				}
			}
		}
	}
}
MOTION
Frames: 3
Frame Time: 0.033333
0.000006 104.270477 1.554256 0.000010 0.000003 -0.000113 -0.000005 10.181587 0.131522 0.000001 -0.000003 0.000084 -0.000000 9.893967 -1.470711 0.000001 0.000000 -0.000000 -0.000000 9.220802 -1.370642 0.000000 -0.000000 -0.000000 0.000001 16.740433 -2.049030 0.000000 -0.000000 -0.000000 0.000000 9.617859 1.685014 0.000000 0.000000 0.000000 0.000002 22.037384 7.501101 0.000000 -0.000000 0.000000 -4.569968 11.014880 -2.160881 0.000008 0.000001 -0.000038 -10.592874 -0.524778 -2.231896 76.450021 31.804923 -25.295199 -27.841511 -0.000007 0.000561 -45.323465 107.212892 59.058713 -28.328819 0.000020 0.000026 -0.000318 -0.000045 0.000006 -2.464423 -1.573757 2.682319 -49.748677 -169.388596 -14.974039 -3.215254 -1.872535 1.924652 152.591385 32.147747 9.212347 -2.654959 -1.527882 1.513065 146.673367 27.536307 -31.150867 -2.018831 -1.152015 1.108047 -0.000001 0.000000 0.000004 -9.108368 -0.517549 2.260127 99.524182 14.957194 -17.690455 -3.700051 0.000314 0.001511 96.440543 12.781637 -14.264633 -2.850093 0.000366 -0.000247 95.344550 11.071614 -12.146954 -2.772184 0.000000 -0.000022 0.000002 0.000001 -0.000001 -9.532589 0.000261 0.000220 88.753944 15.545063 -15.353318 -3.700078 0.000328 0.003946 88.952969 12.037525 -11.728167 -2.950066 0.000332 -0.001824 90.712555 12.111303 -12.254487 -2.946634 0.000000 -0.000155 0.000004 0.000000 0.000001 -9.103698 -0.042779 -1.864880 84.531944 19.093087 -17.338987 -3.379328 0.000296 -0.000837 87.056048 11.456462 -10.902825 -2.889750 0.000348 0.000633 92.184229 8.351541 -8.723118 -2.638809 -0.000026 0.000941 0.000003 -0.000002 0.000000 -8.076755 -0.486426 -3.806097 71.221162 20.431252 -14.594420 -3.600047 0.000255 -0.003583 73.145903 11.818347 -8.504345 -2.100008 0.000291 -0.005550 76.095937 7.217383 -5.475097 -2.115773 -0.000046 -0.003681 0.000003 -0.000003 -0.000004 4.570446 11.014691 -2.160851 -0.000018 0.000010 -0.000021 10.592513 -0.524546 -2.232380 59.254275 -66.311588 40.762610 27.841721 -0.000087 -0.000094 60.712418 -107.613769 77.348880 28.328833 -0.000027 0.000031 0.000022 -0.000089 -0.000001 2.466135 -1.576187 2.681852 -61.268504 45.400206 20.768058 3.217787 -1.872037 1.916541 245.630705 53.286906 61.261271 2.655963 -1.528822 1.514625 195.295667 46.626802 466.182814 2.020876 -1.154083 1.115151 0.000001 0.000005 0.000002 9.109214 -0.517640 2.260026 -154.818559 -7.027248 -30.712670 3.699894 0.000329 -0.000138 -146.251344 -10.140802 -32.637823 2.849900 0.000354 0.000539 39.530949 -168.981776 149.953074 2.774879 -0.000031 -0.000020 0.000001 0.000002 0.000000 9.533534 0.000160 0.000068 -194.858071 -12.875698 -278.315264 3.700018 0.000175 -0.000387 -277.040396 -6.065889 5.361747 2.950013 0.000066 -0.000208 49.177645 1.320612 -0.603241 2.952870 -0.000032 0.000068 -0.000000 -0.000001 -0.000005 9.104663 -0.042752 -1.865085 -203.590918 -10.270457 -313.422437 3.149994 0.000207 -0.000117 -283.627621 4.410759 -3.468753 2.949975 0.000101 -0.000104 43.324132 7.641795 -3.038511 2.644318 0.000041 0.000060 -0.000001 -0.000003 -0.000003 8.077891 -0.486551 -3.806294 -209.337525 -7.621104 -329.287873 3.599952 0.000192 0.014511 -285.538299 5.717801 -4.059069 2.099972 0.000079 0.007543 -313.980600 10.678745 -4.419877 2.125502 -0.000017 0.007511 0.000002 0.000001 -0.000003 -8.207786 -6.751667 -1.599560 -0.077001 -0.000003 0.000080 -0.000002 -44.370110 0.345938 0.153719 -0.000000 -0.000000 0.000000 -44.423679 -3.043532 -0.076700 0.000000 -0.000002 -0.000006 -8.728667 10.710559 -0.000009 -0.000000 -0.000000 -0.000001 -0.000679 9.278123 0.000000 -0.000000 -0.000000 8.207792 -6.751710 -1.599556 -0.074518 -0.000003 0.000081 -0.000002 -44.370014 0.346960 0.148822 0.000002 0.000000 -0.000001 -44.423664 -3.044403 -0.074314 0.000000 -0.000002 -0.000004 -8.728671 10.710558 0.000007 -0.000000 -0.000000 0.000000 -0.000680 9.278137 -0.000000 0.000000 -0.000001 
0.000006 104.270477 1.554256 0.000010 0.000003 -0.000113 -0.000005 10.181587 0.131522 0.000001 -0.000003 0.000084 -0.000000 9.893967 -1.470711 0.000001 0.000000 -0.000000 -0.000000 9.220802 -1.370642 0.000000 -0.000000 -0.000000 0.000001 16.740433 -2.049030 0.000000 -0.000000 -0.000000 0.000000 9.617859 1.685014 0.000000 0.000000 0.000000 0.000002 22.037384 7.501101 0.000000 -0.000000 0.000000 -4.569968 11.014880 -2.160881 0.000008 0.000001 -0.000038 -10.592869 -0.524774 -2.231884 76.555192 33.428240 -26.661724 -27.841518 0.000010 0.000550 -45.200003 107.411835 59.088363 -28.328814 0.000004 0.000031 -0.000322 -0.000042 0.000007 -2.464431 -1.573740 2.682327 -50.036176 -169.253986 -15.812566 -3.215271 -1.872553 1.924650 152.316634 32.174419 9.710120 -2.654945 -1.527894 1.513066 146.618630 27.534021 -31.267237 -2.018835 -1.152003 1.108068 -0.000004 -0.000002 0.000005 -9.108382 -0.517549 2.260118 99.629729 14.983738 -17.754249 -3.700064 0.000317 0.001506 96.517881 12.533216 -14.006327 -2.850081 0.000364 -0.000265 95.461750 10.787283 -11.859547 -2.772166 -0.000001 -0.000021 0.000001 0.000001 -0.000002 -9.532590 0.000264 0.000210 88.559953 15.531539 -15.288813 -3.700083 0.000311 0.003949 88.816918 11.861025 -11.527746 -2.950068 0.000340 -0.001812 90.859206 11.887593 -12.058660 -2.946639 0.000001 -0.000156 -0.000001 -0.000000 -0.000000 -9.103706 -0.042786 -1.864895 84.185770 19.187495 -17.321291 -3.379359 0.000300 -0.000842 86.799396 11.443663 -10.842203 -2.889750 0.000339 0.000631 92.532261 8.194234 -8.611661 -2.638816 -0.000017 0.000941 -0.000001 -0.000000 -0.000003 -8.076753 -0.486429 -3.806085 71.310433 20.489844 -14.660825 -3.600062 0.000256 -0.003577 72.860865 11.747674 -8.408140 -2.100021 0.000297 -0.005547 76.101039 7.106996 -5.389349 -2.115768 -0.000041 -0.003681 0.000000 -0.000002 -0.000003 4.570446 11.014691 -2.160851 -0.000018 0.000010 -0.000021 10.592518 -0.524536 -2.232383 60.538630 -65.056575 40.832807 27.841719 -0.000075 -0.000085 60.973741 -107.689960 77.719124 28.328840 -0.000013 0.000031 0.000018 -0.000088 -0.000001 2.466125 -1.576181 2.681852 -57.635137 41.646751 18.290565 3.217807 -1.872038 1.916512 256.331262 49.153385 51.010014 2.655992 -1.528816 1.514608 205.611398 46.109637 454.470487 2.020879 -1.154082 1.115154 -0.000000 -0.000002 0.000004 9.109236 -0.517675 2.260036 -149.330352 -6.930274 -24.877297 3.699907 0.000350 -0.000147 -145.718056 -8.868302 -28.257073 2.849910 0.000363 0.000545 35.722890 -170.514539 151.126678 2.774887 -0.000030 -0.000029 0.000000 0.000000 0.000000 9.533493 0.000110 0.000103 -189.044856 -12.264197 -252.796913 3.700000 0.000214 -0.000396 -269.527297 -4.272570 4.305513 2.950003 0.000093 -0.000219 56.332033 2.387520 -1.277236 2.952877 -0.000001 0.000070 -0.000004 0.000001 0.000001 9.104683 -0.042823 -1.865059 -195.715314 -10.666187 -291.837563 3.149981 0.000232 -0.000124 -275.445410 5.533660 -5.030663 2.949972 0.000093 -0.000130 52.157380 8.583739 -4.206581 2.644311 0.000038 0.000057 -0.000002 0.000002 -0.000000 8.077910 -0.486599 -3.806253 -200.184293 -8.187274 -312.948804 3.599933 0.000239 0.014512 -277.986350 7.344181 -6.069531 2.099977 0.000124 0.007530 -307.311220 11.843076 -5.734359 2.125491 -0.000002 0.007513 0.000004 -0.000004 0.000002 -8.207786 -6.751667 -1.599560 -0.077001 -0.000003 0.000080 -0.000002 -44.370110 0.345938 0.153719 -0.000000 -0.000000 0.000000 -44.423679 -3.043532 -0.076700 0.000000 -0.000002 -0.000006 -8.728667 10.710559 -0.000009 -0.000000 -0.000000 -0.000001 -0.000679 9.278123 0.000000 -0.000000 -0.000000 8.207792 -6.751710 -1.599556 -0.074518 -0.000003 0.000081 -0.000002 -44.370014 0.346960 0.148822 0.000002 0.000000 -0.000001 -44.423664 -3.044403 -0.074314 0.000000 -0.000002 -0.000004 -8.728671 10.710558 0.000007 -0.000000 -0.000000 0.000000 -0.000680 9.278137 -0.000000 0.000000 -0.000001 
0.000006 104.270477 1.554256 0.000010 0.000003 -0.000113 -0.000005 10.181587 0.131522 0.000001 -0.000003 0.000084 -0.000000 9.893967 -1.470711 0.000001 0.000000 -0.000000 -0.000000 9.220802 -1.370642 0.000000 -0.000000 -0.000000 0.000001 16.740433 -2.049030 0.000000 -0.000000 -0.000000 0.000000 9.617859 1.685014 0.000000 0.000000 0.000000 0.000002 22.037384 7.501101 0.000000 -0.000000 0.000000 -4.569968 11.014880 -2.160881 0.000008 0.000001 -0.000038 -10.592869 -0.524771 -2.231900 76.586665 31.301121 -24.946136 -27.841509 0.000009 0.000549 -45.153056 107.964049 59.529880 -28.328823 0.000010 0.000031 -0.000322 -0.000043 0.000008 -2.464414 -1.573753 2.682311 -50.304541 -169.589786 -16.625613 -3.215279 -1.872551 1.924634 151.841580 32.230966 10.676632 -2.654962 -1.527887 1.513075 146.418656 27.626413 -30.561248 -2.018834 -1.151997 1.108068 -0.000004 -0.000003 0.000002 -9.108381 -0.517545 2.260125 99.410180 14.756327 -17.419897 -3.700066 0.000323 0.001506 96.368765 12.694792 -14.150084 -2.850080 0.000368 -0.000266 95.461818 11.033452 -12.129868 -2.772179 -0.000014 -0.000019 0.000001 -0.000001 0.000000 -9.532583 0.000272 0.000207 88.574849 15.227393 -14.995387 -3.700056 0.000306 0.003945 88.789358 12.029416 -11.687016 -2.950059 0.000338 -0.001832 90.987846 12.047527 -12.248210 -2.946626 0.000000 -0.000155 0.000000 0.000000 0.000001 -9.103714 -0.042770 -1.864902 84.380710 19.059124 -17.262828 -3.379341 0.000298 -0.000841 86.724333 11.481194 -10.863557 -2.889744 0.000357 0.000622 92.407672 8.282682 -8.685275 -2.638830 -0.000014 0.000941 -0.000003 0.000000 -0.000001 -8.076756 -0.486414 -3.806088 71.537031 20.427498 -14.675956 -3.600047 0.000248 -0.003579 72.993583 11.630432 -8.341770 -2.100013 0.000293 -0.005574 76.029452 6.967556 -5.273605 -2.115776 -0.000056 -0.003682 0.000001 -0.000003 -0.000003 4.570446 11.014691 -2.160851 -0.000018 0.000010 -0.000021 10.592514 -0.524535 -2.232388 61.156967 -64.238373 40.703918 27.841732 -0.000062 -0.000084 61.510717 -108.247420 78.892810 28.328838 -0.000014 0.000017 0.000020 -0.000090 0.000000 2.466140 -1.576175 2.681872 -61.027610 38.274393 19.950539 3.217819 -1.872025 1.916503 257.237956 47.065765 49.441250 2.655974 -1.528795 1.514609 203.341726 44.441350 455.668284 2.020891 -1.154068 1.115145 0.000002 0.000002 0.000003 9.109240 -0.517689 2.260072 -139.478924 -8.610917 -23.035672 3.699925 0.000310 -0.000118 -132.712351 -9.840798 -22.272878 2.849940 0.000328 0.000564 50.765186 -170.398494 159.925615 2.774879 -0.000031 -0.000030 0.000002 -0.000000 0.000000 9.533422 0.000049 0.000109 -186.493630 -14.818411 -227.203251 3.700053 0.000219 -0.000391 -265.844404 -5.795445 6.228321 2.950001 0.000114 -0.000232 59.836275 3.132396 -1.801503 2.952866 0.000000 0.000058 0.000001 -0.000004 -0.000003 9.104639 -0.042931 -1.865043 -193.171519 -14.591905 -264.072407 3.150026 0.000234 -0.000124 -274.017955 3.162513 -2.946916 2.949964 0.000106 -0.000125 54.438223 10.099594 -5.204076 2.644311 0.000031 0.000058 -0.000000 0.000002 -0.000000 8.077946 -0.486729 -3.806228 -195.628407 -12.246887 -280.163759 3.599921 0.000228 0.014505 -275.825906 5.721312 -4.825305 2.099950 0.000113 0.007518 -304.840167 12.988446 -6.655593 2.125510 -0.000014 0.007519 0.000001 -0.000000 0.000000 -8.207786 -6.751667 -1.599560 -0.077001 -0.000003 0.000080 -0.000002 -44.370110 0.345938 0.153719 -0.000000 -0.000000 0.000000 -44.423679 -3.043532 -0.076700 0.000000 -0.000002 -0.000006 -8.728667 10.710559 -0.000009 -0.000000 -0.000000 -0.000001 -0.000679 9.278123 0.000000 -0.000000 -0.000000 8.207792 -6.751710 -1.599556 -0.074518 -0.000003 0.000081 -0.000002 -44.370014 0.346960 0.148822 0.000002 0.000000 -0.000001 -44.423664 -3.044403 -0.074314 0.000000 -0.000002 -0.000004 -8.728671 10.710558 0.000007 -0.000000 -0.000000 0.000000 -0.000680 9.278137 -0.000000 0.000000 -0.000001 
